<?xml version="1.0" encoding="UTF-8" standalone="no"?>
<!DOCTYPE svg PUBLIC "-//W3C//DTD SVG 1.1//EN" "http://www.w3.org/Graphics/SVG/1.1/DTD/svg11.dtd">
<svg xmlns="http://www.w3.org/2000/svg" xmlns:xlink="http://www.w3.org/1999/xlink" version="1.1" width="720pt" height="405pt" viewBox="0 0 720 405">
<g enable-background="new">
<g>
<clipPath id="cp16">
<path transform="matrix(.001968504,0,0,.001968504,0,0)" d="M 0 0 L 365760 0 L 365760 205740 L 0 205740 L 0 0 Z "/>
</clipPath>
<g clip-path="url(#cp16)">
<path transform="matrix(.001968504,0,0,.001968504,0,0)" d="M 0 0 L 365760 0 L 365760 205740 L 0 205740 Z " fill="#fff2cc" fill-rule="evenodd"/>
<path transform="matrix(.001968504,0,0,.001968504,0,0)" d="M 12468 17801 L 353292 17801 L 353292 40709 L 12468 40709 Z " fill-opacity="0" fill-rule="evenodd"/>
<text xml:space="preserve" transform="matrix(.75 0 0 .75 24.543309 35.04134)" font-size="33.6" font-family="HelveticaNeue"><tspan y="41.255998" x="353.7201 372.8385 390.8817 409.56333 417.02253 435.06575 442.52494 460.56816 469.87535 494.13453 513.4209 530.2209">Vehicle Cost</tspan></text>
<path transform="matrix(.001968504,0,0,.001968504,0,0)" d="M 12468 46099 L 353292 46099 L 353292 182755 L 12468 182755 Z " fill-opacity="0" fill-rule="evenodd"/>
<text xml:space="preserve" transform="matrix(.75 0 0 .75 24.543309 90.74606)" font-size="24" font-family="HelveticaNeue"><tspan y="32.04" x="9 23.64 28.968 41.856004 54.744005 62.280004 70.272 75.600009 88.48801 95.13601 107.13601 120.02401 133.36801 147.14402 160.92002 166.24802 172.89601 187.104 200.448 212.448 225.336 237.336 243.984 256.872 264.432 277.32 283.96803 298.368 311.712 318.36003 325.89604 331.22404 351.69606 364.58406 376.58406 383.23207 396.12007 408.12007 414.76808 427.22407 439.65608 453.86408 466.75209 480.09608 492.09608 497.42408 509.42408 522.3121 528.9601 542.3041 556.5121 563.5921 571.1521 584.9281 598.2721 605.8081 612.4561 619.1041 635.5441 649.3201 656.85617 670.20016 676.84817 682.17617 695.06417 707.06417 714.60018 721.24819 735.6482 748.9922 762.3362 768.9842 780.9842 793.8722 806.7602 814.7522 826.7522">Electric school buses are ~4 times as expensive upfront. Both last ~12 years.</tspan></text>
<text xml:space="preserve" transform="matrix(.75 0 0 .75 24.543309 90.74606)" font-size="24" font-family="HelveticaNeue"><tspan y="130.28" x="9 22.344002 27.672003 41.448 54.792005 72.12 78.768009 93.408008 98.73601 111.62401 124.51201 132.048 140.04001 145.36801 158.25601 164.904 181.34401 194.68802 206.68802 213.33602 226.22402 240.00002 252.00002 259.536 271.536 278.18403 291.528 304.872 318.216 331.56">LionC Electric Bus costs $370k</tspan></text>
<text xml:space="preserve" transform="matrix(.75 0 0 .75 24.543309 90.74606)" font-size="24" font-family="HelveticaNeue"><tspan y="179.4" x="9 23.664 35.664 48.552003 55.992006 68.880008 82.656009 95.54401 102.19201 116.40001 121.72801 134.61602 146.61602 159.50402 164.83202 171.48001 185.68802 199.03202 211.03202 217.68001 230.56801 244.34401 256.344 263.88 275.88 282.528 295.872 309.216 322.56 335.904">Average diesel bus costs $100k</tspan></text>
<path transform="matrix(.001968504,0,0,.001968504,0,0)" d="M 257922.99 190736 L 365755 190736 L 365755 204896 L 257922.99 204896 Z " fill-opacity="0" fill-rule="evenodd"/>
<text xml:space="preserve" transform="matrix(.75 0 0 .75 507.7224 375.46458)" font-size="14.666667" font-family="HelveticaNeue"><tspan y="23.08" x="127.11777 132.28044 141.47644 146.36045 149.61644 157.49245 165.36846 172.70178 176.76445 184.09778 191.97379 196.93112 204.26445 208.32712 217.00978 224.34311 228.40578 235.7391 243.61511 251.76978 255.02577 262.90177 266.15779">*Prices vary by vehicle</tspan></text>
</g>
</g>
</g>
</svg>
