<?xml version="1.0" standalone="no"?>
<!DOCTYPE svg PUBLIC "-//W3C//DTD SVG 20010904//EN"
 "http://www.w3.org/TR/2001/REC-SVG-20010904/DTD/svg10.dtd">
<svg version="1.0" xmlns="http://www.w3.org/2000/svg"
 width="512.000000pt" height="512.000000pt" viewBox="0 0 512.000000 512.000000"
 preserveAspectRatio="xMidYMid meet">
<metadata>
Created by potrace 1.14, written by Peter Selinger 2001-2017
</metadata>
<g transform="translate(0.000000,512.000000) scale(0.100000,-0.100000)"
fill="#000000" stroke="none">
<path d="M214 5109 c-86 -25 -181 -122 -204 -209 -7 -25 -9 -802 -8 -2361 l3
-2324 23 -42 c33 -63 74 -106 134 -139 l53 -29 2345 0 2345 0 53 29 c60 33
101 76 134 139 l23 42 0 2345 0 2345 -29 53 c-33 60 -76 101 -139 134 l-42 23
-2330 2 c-1381 1 -2343 -2 -2361 -8z m4647 -129 c43 -12 99 -66 115 -112 18
-47 19 -4553 2 -4610 -13 -45 -64 -98 -110 -114 -47 -18 -4553 -19 -4610 -2
-45 13 -98 64 -114 110 -18 47 -19 4553 -2 4610 13 45 64 98 110 114 43 16
4553 19 4609 4z"/>
<path d="M2045 4520 c-11 -4 -39 -10 -63 -14 -54 -7 -274 -77 -356 -113 -99
-43 -209 -96 -236 -113 -14 -10 -50 -30 -80 -47 -249 -137 -379 -230 -524
-377 -118 -120 -150 -204 -122 -317 21 -82 74 -151 140 -184 59 -30 174 -35
232 -10 19 8 74 52 122 97 48 46 108 101 134 122 41 33 169 115 218 139 8 5
44 26 80 47 110 67 375 182 448 195 15 2 51 9 81 15 68 13 153 12 211 -1 25
-6 56 -13 70 -15 43 -8 154 -81 178 -118 44 -66 55 -120 60 -314 2 -101 1
-221 -3 -267 l-7 -83 -251 -126 c-265 -132 -425 -216 -517 -270 -30 -18 -82
-48 -115 -67 -174 -99 -440 -275 -546 -361 -451 -367 -734 -748 -804 -1081
-39 -182 1 -317 139 -464 72 -77 158 -133 256 -167 59 -20 280 -32 309 -16 9
4 37 11 62 14 62 8 291 89 323 114 6 5 54 31 106 58 52 26 106 55 120 65 14 9
59 38 100 65 41 27 82 54 90 61 8 6 62 46 120 89 125 93 360 320 474 459 191
230 342 463 452 690 73 153 114 264 158 434 18 69 39 128 47 133 33 18 109 52
179 79 41 16 84 34 95 39 88 40 478 151 580 165 82 11 107 14 301 45 267 41
267 41 335 109 46 46 61 70 74 116 19 64 15 137 -12 189 -22 44 -91 114 -138
139 -55 30 -179 28 -395 -6 -91 -15 -185 -29 -209 -32 -50 -6 -211 -41 -256
-55 -16 -5 -47 -12 -67 -15 -21 -4 -77 -20 -125 -36 -49 -16 -99 -32 -113 -34
-14 -3 -60 -18 -104 -35 -43 -17 -81 -28 -84 -25 -3 3 -9 63 -14 133 -15 242
-36 337 -104 473 -34 69 -115 183 -158 222 -62 58 -87 77 -96 77 -5 0 -10 4
-10 9 0 13 -191 104 -270 130 -127 40 -188 49 -343 49 -84 0 -161 -4 -172 -8z
m354 -2147 c-183 -324 -423 -616 -674 -819 -92 -75 -278 -204 -294 -204 -6 0
-11 -4 -11 -8 0 -11 -286 -150 -320 -156 -14 -3 -25 -5 -25 -6 0 -2 -35 -9
-82 -16 -38 -6 -43 -4 -43 12 0 33 64 154 126 241 132 183 312 365 488 495 44
33 94 69 110 81 60 46 292 191 411 257 22 12 45 26 50 30 9 7 58 33 229 124
27 14 53 26 58 26 5 0 -5 -26 -23 -57z"/>
<path d="M4168 2900 c-16 -5 -28 -7 -28 -4 0 12 -95 -60 -124 -95 -81 -97 -81
-247 0 -348 71 -87 201 -133 297 -103 226 70 280 328 103 491 -60 56 -171 82
-248 59z"/>
<path d="M3560 2761 c-90 -29 -156 -88 -192 -170 -16 -38 -19 -59 -14 -119 7
-87 29 -134 89 -189 66 -61 111 -81 200 -88 140 -12 287 126 287 269 0 121
-64 222 -175 276 -53 26 -149 36 -195 21z"/>
<path d="M3970 2256 c-92 -30 -168 -103 -191 -183 -22 -74 -15 -164 16 -217
98 -167 302 -206 440 -84 66 59 95 121 95 206 0 113 -33 180 -116 241 -69 49
-164 64 -244 37z"/>
</g>
</svg>
