<?xml version="1.0" encoding="UTF-8" standalone="no"?>
<!DOCTYPE svg PUBLIC "-//W3C//DTD SVG 1.1//EN" "http://www.w3.org/Graphics/SVG/1.1/DTD/svg11.dtd">
<svg xmlns="http://www.w3.org/2000/svg" xmlns:xlink="http://www.w3.org/1999/xlink" version="1.1" width="720pt" height="405pt" viewBox="0 0 720 405">
<g enable-background="new">
<g>
<clipPath id="cp40">
<path transform="matrix(.001968504,0,0,.001968504,0,0)" d="M 0 0 L 365760 0 L 365760 205740 L 0 205740 L 0 0 Z "/>
</clipPath>
<g clip-path="url(#cp40)">
<path transform="matrix(.001968504,0,0,.001968504,0,0)" d="M 0 0 L 365760 0 L 365760 205740 L 0 205740 Z " fill="#c9daf8" fill-rule="evenodd"/>
<path transform="matrix(.001968504,0,0,.001968504,0,0)" d="M -1452 61401.5 L 367212 61401.5 L 367212 110133.5 L -1452 110133.5 Z " fill-opacity="0" fill-rule="evenodd"/>
<text xml:space="preserve" transform="matrix(.75 0 0 .75 -2.8582679 120.869098)" font-size="33.333333" font-family="HelveticaNeue"><tspan y="41" x="254.5744 263.1744 273.00776 282.2411 298.90776 318.04109 336.5744 345.80775 363.70774 382.84107 393.34107 411.24107 429.14106 438.3744">If you agree, </tspan></text>
<text xml:space="preserve" transform="matrix(.75 0 0 .75 -2.8582679 120.869098)" font-size="33.333333" font-family="HelveticaNeue" font-weight="bold"><tspan y="41" x="447.77333 465.6733 474.24 494.57334 514.30667 523.54 535.2733 555.00668 574.14 583.37338 603.70669 622.84 634.57339 643.14 654.87338 663.44 683.7733">sign the petition</tspan></text>
<text xml:space="preserve" transform="matrix(.75 0 0 .75 -2.8582679 120.869098)" font-size="33.333333" font-family="HelveticaNeue"><tspan y="41" x="703.7881">.</tspan></text>
<text xml:space="preserve" transform="matrix(.75 0 0 .75 -2.8582679 120.869098)" font-size="23.333334" font-family="HelveticaNeue"><tspan y="91.399997" x="24.806519 37.47652 50.869855 63.84319 71.61319 78.07652 89.74319 94.92319 108.31652 121.289859 133.81986 141.14652 154.11985 161.46985 173.99985 180.46318 198.12651 203.30652 208.48653 213.66654 220.12987 232.65987 246.4732 260.28654 266.74989 280.5632 287.91319 300.44319 312.10984 323.7765 336.74983 344.0998 356.6298 363.09315 369.97648 383.3698 391.1398 397.60316 413.5865 418.76649 430.43315 442.96315 450.3131 464.12644 476.65644 481.83644 494.36643 500.82978 515.5065 521.9698 537.06649 550.0398 563.85317 576.3832 584.1532 599.2499 611.7799 616.9599 630.77328 642.43997 648.90328 655.9499 669.3432 675.8065 689.1998 701.72988 709.0565 715.51986 728.04989 733.22988 745.7599 758.2899 765.6166 773.3866 778.5666 791.0966 797.55996 809.2266 821.75668 834.73 848.1233 861.5166 866.6966 873.1599 886.97329 899.9466 911.6133 924.1433 935.81">Your signature will add pressure for Riverdale &#x0026; SuperSelby to get electric school buses.</tspan></text>
<path transform="matrix(.001968504,0,0,.001968504,0,0)" d="M 0 109864 L 365760 109864 L 365760 139876 L 0 139876 Z " fill-opacity="0" fill-rule="evenodd"/>
<path transform="matrix(.75,0,0,.75,0,216.26773)" d="M 224.78723 23.04544 L 735.21279 23.04544 L 735.21279 56.639085 L 224.78723 56.639085 L 224.78723 23.04544 Z " fill-opacity="0"/>
<text fill="#0000ff" xml:space="preserve" transform="matrix(.75 0 0 .75 0 216.26773)" font-size="26.666666" font-family="HelveticaNeue" font-weight="bold"><tspan y="48.985826" x="224.78723 240.5739 249.96057 259.34724 275.6139 289.9339 297.32057 307.2139 317.10725 325.98725 342.2539 352.62724 376.76057 391.08058 398.46723 414.7339 421.58723 436.8939 446.78724 464.54725 482.30726 499.58726 506.44059 531.5873 547.37399 562.6806 582.4406 598.7073 613.53396 629.3206 645.5873 667.2673 681.1073 700.36068 720.12069">https://forms.gle/XXSiWhcDd7howzKH8</tspan></text>
<path transform="matrix(.75,0,0,.75,0,216.26773)" d="M 735.21279 23.04544 L 735.21279 23.04544 L 735.21279 56.639085 L 735.21279 23.04544 Z " fill="#010000" fill-opacity="0"/>
<path transform="matrix(.75,0,0,.75,0,216.26773)" d="M 224.78723 50.71916 L 735.21279 50.71916 L 735.21279 53.11916 L 224.78723 53.11916 L 224.78723 50.71916 Z " fill="#0000ff"/>
</g>
</g>
</g>
</svg>
